# xmcd
#
# Track frame offsets:
#	150
#	19516
#	36372
#	52617
#	67462
#	88320
#	103659
#	121786
#	138471
#	154475
#	173050
#
# Disc length: 2559 seconds
#
# Revision: 1
# Processed by: cddbd v1.5.2PL0 Copyright (c) Steve Scherf et al.
# Submitted via: audiograbber 1.83.01
#
DISCID=9509fd0b
DTITLE=Marques Houston - Mattress Music
DYEAR=2010
DGENRE=R&B
TTITLE0=Mattress Music
TTITLE1=Pullin´ on her hair feat. Rick Ross
TTITLE2=Kickin and Screamin
TTITLE3=Mess
TTITLE4=Noize
TTITLE5=Swag Sex feat. Soulja Boy Tell ´Em
TTITLE6=He aint me
TTITLE7=High Notes
TTITLE8=Ghetto Angel
TTITLE9=Explosion
TTITLE10=Waterfall
EXTD=
EXTT0=
EXTT1=
EXTT2=
EXTT3=
EXTT4=
EXTT5=
EXTT6=
EXTT7=
EXTT8=
EXTT9=
EXTT10=
PLAYORDER=
